G04 #@! TF.FileFunction,Copper,L1,Top,Signal*
%FSLAX46Y46*%
G04 Gerber Fmt 4.6, Leading zero omitted, Abs format (unit mm)*
G04 Created by KiCad (PCBNEW 4.0.2-stable) date 2016-10-26 13:47:51*
%MOMM*%
G01*
G04 APERTURE LIST*
%ADD10C,0.100000*%
%ADD11R,1.300000X1.300000*%
%ADD12C,1.300000*%
%ADD13R,2.000000X1.900000*%
%ADD14C,1.900000*%
%ADD15R,1.727200X1.727200*%
%ADD16O,1.727200X1.727200*%
%ADD17R,1.727200X2.032000*%
%ADD18O,1.727200X2.032000*%
%ADD19R,2.032000X2.032000*%
%ADD20O,2.032000X2.032000*%
%ADD21C,1.998980*%
%ADD22O,1.501140X2.499360*%
%ADD23O,1.600000X1.600000*%
%ADD24O,1.600000X2.300000*%
%ADD25C,4.064000*%
%ADD26C,0.685800*%
%ADD27C,0.635000*%
%ADD28C,0.254000*%
G04 APERTURE END LIST*
D10*
D11*
X140970000Y-59182000D03*
D12*
X138470000Y-59182000D03*
D11*
X123698000Y-52578000D03*
D12*
X123698000Y-50078000D03*
D11*
X127254000Y-51308000D03*
D12*
X129754000Y-51308000D03*
D11*
X166624000Y-61468000D03*
D12*
X166624000Y-63968000D03*
D13*
X140970000Y-79248000D03*
D14*
X140970000Y-81788000D03*
D13*
X133350000Y-79248000D03*
D14*
X133350000Y-81788000D03*
D15*
X150114000Y-60198000D03*
D16*
X150114000Y-57658000D03*
X152654000Y-60198000D03*
X152654000Y-57658000D03*
X155194000Y-60198000D03*
X155194000Y-57658000D03*
D17*
X166370000Y-82550000D03*
D18*
X163830000Y-82550000D03*
X161290000Y-82550000D03*
D19*
X145288000Y-57658000D03*
D20*
X145288000Y-60198000D03*
D19*
X124714000Y-37084000D03*
D20*
X124714000Y-34544000D03*
D17*
X122174000Y-77978000D03*
D18*
X124714000Y-77978000D03*
X127254000Y-77978000D03*
D19*
X133858000Y-37084000D03*
D20*
X133858000Y-34544000D03*
D19*
X129286000Y-37084000D03*
D20*
X129286000Y-34544000D03*
D21*
X156718000Y-78486000D03*
X146558000Y-78486000D03*
X170688000Y-67818000D03*
X170688000Y-77978000D03*
X156718000Y-82550000D03*
X146558000Y-82550000D03*
X166624000Y-77978000D03*
X166624000Y-67818000D03*
X147574000Y-36068000D03*
X157734000Y-36068000D03*
X162560000Y-67818000D03*
X162560000Y-77978000D03*
X144018000Y-52324000D03*
X133858000Y-52324000D03*
X157734000Y-48260000D03*
X147574000Y-48260000D03*
X147574000Y-52324000D03*
X157734000Y-52324000D03*
X157734000Y-44196000D03*
X147574000Y-44196000D03*
X147574000Y-40132000D03*
X157734000Y-40132000D03*
X144018000Y-48260000D03*
X133858000Y-48260000D03*
D17*
X134366000Y-58928000D03*
D18*
X131826000Y-58928000D03*
X129286000Y-58928000D03*
D17*
X143510000Y-36322000D03*
D18*
X140970000Y-36322000D03*
X138430000Y-36322000D03*
D22*
X125984000Y-43942000D03*
X128524000Y-43942000D03*
X123444000Y-43942000D03*
X138684000Y-42418000D03*
X141224000Y-42418000D03*
X136144000Y-42418000D03*
D15*
X122428000Y-57404000D03*
D16*
X124968000Y-57404000D03*
X122428000Y-59944000D03*
X124968000Y-59944000D03*
D23*
X169672000Y-56388000D03*
X169672000Y-53848000D03*
X169672000Y-51308000D03*
X169672000Y-48768000D03*
X169672000Y-46228000D03*
X169672000Y-43688000D03*
X169672000Y-41148000D03*
X169672000Y-38608000D03*
X162052000Y-38608000D03*
X162052000Y-41148000D03*
X162052000Y-43688000D03*
X162052000Y-46228000D03*
X162052000Y-48768000D03*
X162052000Y-51308000D03*
X162052000Y-53848000D03*
X162052000Y-56388000D03*
D24*
X123190000Y-72644000D03*
X125730000Y-72644000D03*
X128270000Y-72644000D03*
X130810000Y-72644000D03*
X133350000Y-72644000D03*
X135890000Y-72644000D03*
X138430000Y-72644000D03*
X140970000Y-72644000D03*
X143510000Y-72644000D03*
X146050000Y-72644000D03*
X148590000Y-72644000D03*
X151130000Y-72644000D03*
X153670000Y-72644000D03*
X156210000Y-72644000D03*
X156210000Y-65024000D03*
X153670000Y-65024000D03*
X151130000Y-65024000D03*
X148590000Y-65024000D03*
X146050000Y-65024000D03*
X143510000Y-65024000D03*
X140970000Y-65024000D03*
X138430000Y-65024000D03*
X135890000Y-65024000D03*
X133350000Y-65024000D03*
X130810000Y-65024000D03*
X128270000Y-65024000D03*
X125730000Y-65024000D03*
X123190000Y-65024000D03*
D25*
X119380000Y-33020000D03*
X172720000Y-33020000D03*
X172720000Y-83820000D03*
X119380000Y-83820000D03*
D26*
X119557800Y-62458600D03*
X137668000Y-62433220D03*
X161213800Y-59029600D03*
X142265400Y-66344800D03*
X139674600Y-70942200D03*
X128371600Y-39852600D03*
X136169400Y-45897800D03*
X141427200Y-68478400D03*
X163245800Y-57658000D03*
X159969200Y-40233600D03*
X157988000Y-64770000D03*
X160426400Y-42062400D03*
D27*
X137668000Y-62433220D02*
X119583180Y-62433220D01*
X119583180Y-62433220D02*
X119557800Y-62458600D01*
X157556200Y-67056000D02*
X161213800Y-63398400D01*
X161213800Y-63398400D02*
X161213800Y-59029600D01*
X142491667Y-67056000D02*
X157556200Y-67056000D01*
X142265400Y-66344800D02*
X142265400Y-66829733D01*
X142265400Y-66829733D02*
X142491667Y-67056000D01*
X139674600Y-70942200D02*
X139674600Y-68935600D01*
X139674600Y-68935600D02*
X142265400Y-66344800D01*
X133972301Y-45554901D02*
X128371600Y-39954200D01*
X128371600Y-39954200D02*
X128371600Y-39852600D01*
X136169400Y-45897800D02*
X135826501Y-45554901D01*
X135826501Y-45554901D02*
X133972301Y-45554901D01*
D28*
X163245800Y-57658000D02*
X163245800Y-62174637D01*
X163245800Y-62174637D02*
X156942037Y-68478400D01*
X156942037Y-68478400D02*
X141427200Y-68478400D01*
X159969200Y-40233600D02*
X159626301Y-40576499D01*
X159626301Y-40576499D02*
X159626301Y-58717699D01*
X159626301Y-58717699D02*
X153670000Y-64674000D01*
X153670000Y-64674000D02*
X153670000Y-65024000D01*
X159084764Y-64719200D02*
X158038800Y-64719200D01*
X158038800Y-64719200D02*
X157988000Y-64770000D01*
X160426400Y-42062400D02*
X160426400Y-63377564D01*
X160426400Y-63377564D02*
X159084764Y-64719200D01*
M02*
