G04 #@! TF.FileFunction,Soldermask,Top*
%FSLAX46Y46*%
G04 Gerber Fmt 4.6, Leading zero omitted, Abs format (unit mm)*
G04 Created by KiCad (PCBNEW 4.0.2-stable) date 2016-10-26 13:47:51*
%MOMM*%
G01*
G04 APERTURE LIST*
%ADD10C,0.100000*%
%ADD11R,1.700000X1.700000*%
%ADD12C,1.700000*%
%ADD13R,2.400000X2.300000*%
%ADD14C,2.300000*%
%ADD15R,2.127200X2.127200*%
%ADD16O,2.127200X2.127200*%
%ADD17R,2.127200X2.432000*%
%ADD18O,2.127200X2.432000*%
%ADD19R,2.432000X2.432000*%
%ADD20O,2.432000X2.432000*%
%ADD21C,2.398980*%
%ADD22O,1.901140X2.899360*%
%ADD23O,2.000000X2.000000*%
%ADD24O,2.000000X2.700000*%
%ADD25C,4.464000*%
G04 APERTURE END LIST*
D10*
D11*
X140970000Y-59182000D03*
D12*
X138470000Y-59182000D03*
D11*
X123698000Y-52578000D03*
D12*
X123698000Y-50078000D03*
D11*
X127254000Y-51308000D03*
D12*
X129754000Y-51308000D03*
D11*
X166624000Y-61468000D03*
D12*
X166624000Y-63968000D03*
D13*
X140970000Y-79248000D03*
D14*
X140970000Y-81788000D03*
D13*
X133350000Y-79248000D03*
D14*
X133350000Y-81788000D03*
D15*
X150114000Y-60198000D03*
D16*
X150114000Y-57658000D03*
X152654000Y-60198000D03*
X152654000Y-57658000D03*
X155194000Y-60198000D03*
X155194000Y-57658000D03*
D17*
X166370000Y-82550000D03*
D18*
X163830000Y-82550000D03*
X161290000Y-82550000D03*
D19*
X145288000Y-57658000D03*
D20*
X145288000Y-60198000D03*
D19*
X124714000Y-37084000D03*
D20*
X124714000Y-34544000D03*
D17*
X122174000Y-77978000D03*
D18*
X124714000Y-77978000D03*
X127254000Y-77978000D03*
D19*
X133858000Y-37084000D03*
D20*
X133858000Y-34544000D03*
D19*
X129286000Y-37084000D03*
D20*
X129286000Y-34544000D03*
D21*
X156718000Y-78486000D03*
X146558000Y-78486000D03*
X170688000Y-67818000D03*
X170688000Y-77978000D03*
X156718000Y-82550000D03*
X146558000Y-82550000D03*
X166624000Y-77978000D03*
X166624000Y-67818000D03*
X147574000Y-36068000D03*
X157734000Y-36068000D03*
X162560000Y-67818000D03*
X162560000Y-77978000D03*
X144018000Y-52324000D03*
X133858000Y-52324000D03*
X157734000Y-48260000D03*
X147574000Y-48260000D03*
X147574000Y-52324000D03*
X157734000Y-52324000D03*
X157734000Y-44196000D03*
X147574000Y-44196000D03*
X147574000Y-40132000D03*
X157734000Y-40132000D03*
X144018000Y-48260000D03*
X133858000Y-48260000D03*
D17*
X134366000Y-58928000D03*
D18*
X131826000Y-58928000D03*
X129286000Y-58928000D03*
D17*
X143510000Y-36322000D03*
D18*
X140970000Y-36322000D03*
X138430000Y-36322000D03*
D22*
X125984000Y-43942000D03*
X128524000Y-43942000D03*
X123444000Y-43942000D03*
X138684000Y-42418000D03*
X141224000Y-42418000D03*
X136144000Y-42418000D03*
D15*
X122428000Y-57404000D03*
D16*
X124968000Y-57404000D03*
X122428000Y-59944000D03*
X124968000Y-59944000D03*
D23*
X169672000Y-56388000D03*
X169672000Y-53848000D03*
X169672000Y-51308000D03*
X169672000Y-48768000D03*
X169672000Y-46228000D03*
X169672000Y-43688000D03*
X169672000Y-41148000D03*
X169672000Y-38608000D03*
X162052000Y-38608000D03*
X162052000Y-41148000D03*
X162052000Y-43688000D03*
X162052000Y-46228000D03*
X162052000Y-48768000D03*
X162052000Y-51308000D03*
X162052000Y-53848000D03*
X162052000Y-56388000D03*
D24*
X123190000Y-72644000D03*
X125730000Y-72644000D03*
X128270000Y-72644000D03*
X130810000Y-72644000D03*
X133350000Y-72644000D03*
X135890000Y-72644000D03*
X138430000Y-72644000D03*
X140970000Y-72644000D03*
X143510000Y-72644000D03*
X146050000Y-72644000D03*
X148590000Y-72644000D03*
X151130000Y-72644000D03*
X153670000Y-72644000D03*
X156210000Y-72644000D03*
X156210000Y-65024000D03*
X153670000Y-65024000D03*
X151130000Y-65024000D03*
X148590000Y-65024000D03*
X146050000Y-65024000D03*
X143510000Y-65024000D03*
X140970000Y-65024000D03*
X138430000Y-65024000D03*
X135890000Y-65024000D03*
X133350000Y-65024000D03*
X130810000Y-65024000D03*
X128270000Y-65024000D03*
X125730000Y-65024000D03*
X123190000Y-65024000D03*
D25*
X119380000Y-33020000D03*
X172720000Y-33020000D03*
X172720000Y-83820000D03*
X119380000Y-83820000D03*
M02*
