M48
;DRILL file {KiCad 4.0.2-stable} date 2016-10-26 13:42:18
;FORMAT={-:-/ absolute / inch / decimal}
FMAT,2
INCH,TZ
T1C0.013
T2C0.031
T3C0.032
T4C0.039
T5C0.040
T6C0.120
%
G90
G05
M72
T1
X4.707Y-2.459
X5.054Y-1.569
X5.361Y-1.807
X5.42Y-2.458
X5.499Y-2.793
X5.568Y-2.696
X5.601Y-2.612
X6.22Y-2.55
X6.298Y-1.584
X6.316Y-1.656
X6.347Y-2.324
X6.427Y-2.27
T2
X4.85Y-2.56
X4.85Y-2.86
X4.87Y-2.07
X4.95Y-2.56
X4.95Y-2.86
X5.01Y-2.02
X5.05Y-2.56
X5.05Y-2.86
X5.1084Y-2.02
X5.15Y-2.56
X5.15Y-2.86
X5.25Y-2.56
X5.25Y-2.86
X5.35Y-2.56
X5.35Y-2.86
X5.45Y-2.56
X5.45Y-2.86
X5.4516Y-2.33
X5.55Y-2.33
X5.55Y-2.56
X5.55Y-2.86
X5.65Y-2.56
X5.65Y-2.86
X5.75Y-2.56
X5.75Y-2.86
X5.85Y-2.56
X5.85Y-2.86
X5.95Y-2.56
X5.95Y-2.86
X6.05Y-2.56
X6.05Y-2.86
X6.15Y-2.56
X6.15Y-2.86
X6.38Y-1.52
X6.38Y-1.62
X6.38Y-1.72
X6.38Y-1.82
X6.38Y-1.92
X6.38Y-2.02
X6.38Y-2.12
X6.38Y-2.22
X6.56Y-2.42
X6.56Y-2.5184
X6.68Y-1.52
X6.68Y-1.62
X6.68Y-1.72
X6.68Y-1.82
X6.68Y-1.92
X6.68Y-2.02
X6.68Y-2.12
X6.68Y-2.22
T3
X4.87Y-1.9716
T4
X4.86Y-1.73
X4.96Y-1.73
X5.06Y-1.73
X5.25Y-3.12
X5.25Y-3.22
X5.27Y-1.9
X5.27Y-2.06
X5.36Y-1.67
X5.46Y-1.67
X5.55Y-3.12
X5.55Y-3.22
X5.56Y-1.67
X5.67Y-1.9
X5.67Y-2.06
X5.77Y-3.09
X5.77Y-3.25
X5.81Y-1.42
X5.81Y-1.58
X5.81Y-1.74
X5.81Y-1.9
X5.81Y-2.06
X6.17Y-3.09
X6.17Y-3.25
X6.21Y-1.42
X6.21Y-1.58
X6.21Y-1.74
X6.21Y-1.9
X6.21Y-2.06
X6.4Y-2.67
X6.4Y-3.07
X6.56Y-2.67
X6.56Y-3.07
X6.72Y-2.67
X6.72Y-3.07
T5
X4.81Y-3.07
X4.82Y-2.26
X4.82Y-2.36
X4.91Y-1.36
X4.91Y-1.46
X4.91Y-3.07
X4.92Y-2.26
X4.92Y-2.36
X5.01Y-3.07
X5.09Y-1.36
X5.09Y-1.46
X5.09Y-2.32
X5.19Y-2.32
X5.27Y-1.36
X5.27Y-1.46
X5.29Y-2.32
X5.45Y-1.43
X5.55Y-1.43
X5.65Y-1.43
X5.72Y-2.27
X5.72Y-2.37
X5.91Y-2.27
X5.91Y-2.37
X6.01Y-2.27
X6.01Y-2.37
X6.11Y-2.27
X6.11Y-2.37
X6.35Y-3.25
X6.45Y-3.25
X6.55Y-3.25
T6
X4.7Y-1.3
X4.7Y-3.3
X6.8Y-1.3
X6.8Y-3.3
T0
M30
